<?xml version="1.0" encoding="UTF-8" standalone="no"?>
<svg xmlns="http://www.w3.org/2000/svg" viewBox="0 0 512 256" width="100" height="50">
  <!-- Batman Logo -->
  <path fill="#ffff00" d="M256,30 
    C270,30 300,45 320,55 
    C340,65 365,70 380,95 
    C395,120 400,140 385,175 
    C370,210 330,220 300,225 
    C270,230 256,230 256,230 
    C256,230 242,230 212,225 
    C182,220 142,210 127,175 
    C112,140 117,120 132,95 
    C147,70 172,65 192,55 
    C212,45 242,30 256,30 Z 
    
    M170,105 L182,145 L212,135 L256,80 L300,135 L330,145 L342,105 
    L325,125 L256,50 L187,125 Z 
    
    M110,130 L120,150 L100,160 L80,185 L60,160 L80,150 Z 
    
    M402,130 L392,150 L412,160 L432,185 L452,160 L432,150 Z" />
</svg> 